<svg xmlns="http://www.w3.org/2000/svg" width="14" height="11.582" viewBox="0 0 14 11.582"><defs><style>.a{fill:#7e849f;}</style></defs><g transform="translate(0 -0.209)"><path class="a" d="M12.99,0H1.01A1.015,1.015,0,0,0,0,1v.407A1.011,1.011,0,0,0,1.01,2.419H12.99A1.011,1.011,0,0,0,14,1.41V1A1.015,1.015,0,0,0,12.99,0Z" transform="translate(0 0.209)"/><path class="a" d="M12.99,0H1.01A1.015,1.015,0,0,0,0,1v.41A1.011,1.011,0,0,0,1.01,2.42H12.99A1.011,1.011,0,0,0,14,1.41V1a1.015,1.015,0,0,0-1.01-1Z" transform="translate(0 4.79)"/><path class="a" d="M1.01,0H6.5a1.01,1.01,0,0,1,1.01,1.01v.4A1.009,1.009,0,0,1,6.5,2.42H1.009A1.009,1.009,0,0,1,0,1.41v-.4A1.01,1.01,0,0,1,1.01,0Z" transform="translate(0 9.371)"/></g></svg>