<svg xmlns="http://www.w3.org/2000/svg" width="14" height="11.583" viewBox="0 0 14 11.583"><defs><style>.a{fill:#7e849f;}</style></defs><path class="a" d="M12.246,11.583H1.749A1.753,1.753,0,0,1,0,9.84V6.791a.9.9,0,0,1,.044-.276L1.657,1.01A1.535,1.535,0,0,1,3.071,0h7.858a1.535,1.535,0,0,1,1.416,1.011l1.612,5.508A.905.905,0,0,1,14,6.791V9.836a1.754,1.754,0,0,1-1.75,1.742h-.007l0,0ZM3.62,1.75a.484.484,0,0,0-.463.353L2.2,5.543a.3.3,0,0,0,.05.258.3.3,0,0,0,.236.119H4.524a.887.887,0,0,1,.309.061.872.872,0,0,1,.087.043.859.859,0,0,1,.175.12.565.565,0,0,1,.075.072.823.823,0,0,1,.122.181c.016.026.03.052.044.08a.031.031,0,0,0,.007.015A.046.046,0,0,1,5.35,6.5a1.751,1.751,0,0,0,3.3,0,.035.035,0,0,1,.009-.019l.006-.008a.623.623,0,0,1,.043-.08.8.8,0,0,1,.122-.181A.522.522,0,0,1,8.9,6.144a.755.755,0,0,1,.175-.118l.088-.044a.877.877,0,0,1,.308-.061h2.043a.3.3,0,0,0,.287-.378l-.977-3.5a.407.407,0,0,0-.386-.293Z" transform="translate(0 0)"/></svg>