<svg xmlns="http://www.w3.org/2000/svg" width="14" height="14" viewBox="0 0 14 14"><defs><style>.a{fill:#7e849f;}</style></defs><path class="a" d="M12.526,14H1.474A1.476,1.476,0,0,1,0,12.526v-.221a1.473,1.473,0,0,1,.323-.92L4.2,5.147a1.468,1.468,0,0,0,.222-.781L4.415,1.211A1.215,1.215,0,0,1,4.769.355,1.2,1.2,0,0,1,5.624,0H8.37A1.21,1.21,0,0,1,9.575,1.208V4.369A1.5,1.5,0,0,0,9.6,4.55v.014a1.47,1.47,0,0,0,.2.582l3.877,6.239a1.476,1.476,0,0,1,.323.92v.221A1.476,1.476,0,0,1,12.526,14ZM6.637,1.474a.738.738,0,0,0-.737.737V4.369a2.932,2.932,0,0,1-.449,1.555L3.867,8.474l7.745,2.37L8.554,5.924A2.943,2.943,0,0,1,8.11,4.369V2.211a.738.738,0,0,0-.737-.737Z" transform="translate(0)"/></svg>