<svg xmlns="http://www.w3.org/2000/svg" width="13.672" height="14" viewBox="0 0 13.672 14"><defs><style>.a{fill:#7e849f;}</style></defs><g transform="translate(-0.167 0)"><path class="a" d="M7.958,14H5.715a.639.639,0,0,1-.638-.634v-1.11a1.108,1.108,0,0,0-.585-.892,4.746,4.746,0,0,1-.415-.241,1.126,1.126,0,0,0-1.067-.077l-.993.535a.644.644,0,0,1-.869-.252L.079,9.391a.625.625,0,0,1,.255-.857L1.314,8a1.094,1.094,0,0,0,.514-.929V6.833a1.1,1.1,0,0,0-.492-.941L.58,5.461A.626.626,0,0,1,.343,4.6L1.461,2.68a.643.643,0,0,1,.873-.231l.757.428a1.152,1.152,0,0,0,.489.11,1.137,1.137,0,0,0,.585-.162c.1-.064.212-.128.327-.189a1.1,1.1,0,0,0,.585-.889V.633A.637.637,0,0,1,5.712,0H7.956a.636.636,0,0,1,.638.633v1.11a1.1,1.1,0,0,0,.586.892c.146.078.285.159.411.24a1.138,1.138,0,0,0,1.071.077l.988-.535a.642.642,0,0,1,.869.252l1.075,1.941a.627.627,0,0,1-.256.858L12.353,6a1.1,1.1,0,0,0-.514.926v.24a1.11,1.11,0,0,0,.491.942l.758.43a.625.625,0,0,1,.238.86l-1.117,1.92a.642.642,0,0,1-.872.23l-.754-.426a1.14,1.14,0,0,0-1.076.052c-.1.064-.214.127-.326.189a1.084,1.084,0,0,0-.585.887v1.114A.64.64,0,0,1,7.958,14ZM6.87,4.534a2.465,2.465,0,0,0-.036,4.93h.02a2.465,2.465,0,1,0,.027-4.93Z" transform="translate(0.166 0)"/></g></svg>