<svg xmlns="http://www.w3.org/2000/svg" width="14" height="14.001" viewBox="0 0 14 14.001"><defs><style>.a{fill:#7e849f;}</style></defs><g transform="translate(0 0.001)"><path class="a" d="M7.968,2.716H4l.717-.723A1.168,1.168,0,0,0,3.063.343L.341,3.071A1.167,1.167,0,0,0,.353,4.732l2.79,2.707A1.168,1.168,0,1,0,4.775,5.767l-.749-.714H7.968a1.169,1.169,0,0,0,0-2.337Z" transform="translate(0 3.115)"/><path class="a" d="M5.458.378A1.282,1.282,0,0,0,4.548,0H1.323a1.287,1.287,0,1,0,0,2.573H3.262v8.853H1.323a1.287,1.287,0,1,0,0,2.574H4.548a1.287,1.287,0,0,0,1.287-1.287V1.288A1.282,1.282,0,0,0,5.458.378Z" transform="translate(8.165 -0.001)"/></g></svg>